# Blender v2.61 (sub 0) OBJ File: ''
# www.blender.org
o Icosphere
v 0.000000 -1.000000 0.000000
v 0.723600 -0.447215 0.525720
v -0.276385 -0.447215 0.850640
v -0.894425 -0.447215 0.000000
v -0.276385 -0.447215 -0.850640
v 0.723600 -0.447215 -0.525720
v 0.276385 0.447215 0.850640
v -0.723600 0.447215 0.525720
v -0.723600 0.447215 -0.525720
v 0.276385 0.447215 -0.850640
v 0.894425 0.447215 0.000000
v 0.000000 1.000000 0.000000
v -0.162456 -0.850654 0.499995
v 0.425323 -0.850654 0.309011
v 0.262869 -0.525738 0.809012
v 0.425323 -0.850654 -0.309011
v 0.850648 -0.525736 0.000000
v -0.525730 -0.850652 0.000000
v -0.688189 -0.525736 0.499997
v -0.162456 -0.850654 -0.499995
v -0.688189 -0.525736 -0.499997
v 0.262869 -0.525738 -0.809012
v 0.951058 0.000000 -0.309013
v 0.951058 0.000000 0.309013
v 0.587786 0.000000 0.809017
v 0.000000 0.000000 1.000000
v -0.587786 0.000000 0.809017
v -0.951058 0.000000 0.309013
v -0.951058 0.000000 -0.309013
v -0.587786 0.000000 -0.809017
v 0.000000 0.000000 -1.000000
v 0.587786 0.000000 -0.809017
v 0.688189 0.525736 0.499997
v -0.262869 0.525738 0.809012
v -0.850648 0.525736 0.000000
v -0.262869 0.525738 -0.809012
v 0.688189 0.525736 -0.499997
v 0.525730 0.850652 0.000000
v 0.162456 0.850654 0.499995
v -0.425323 0.850654 0.309011
v -0.425323 0.850654 -0.309011
v 0.162456 0.850654 -0.499995
v -0.084770 -0.965679 0.260899
v -0.228989 -0.677235 0.704767
v 0.221934 -0.965678 0.161243
v 0.599513 -0.677235 0.435567
v -0.007052 -0.507690 0.866012
v 0.514743 -0.507690 0.696468
v 0.221934 -0.965678 -0.161243
v 0.599513 -0.677235 -0.435567
v 0.821449 -0.507689 -0.274322
v 0.821449 -0.507689 0.274322
v -0.274327 -0.965678 0.000000
v -0.741044 -0.677233 0.000000
v -0.503319 -0.507690 0.704768
v -0.825814 -0.507689 0.260900
v -0.084770 -0.965679 -0.260899
v -0.228989 -0.677235 -0.704767
v -0.503319 -0.507690 -0.704768
v -0.825814 -0.507689 -0.260900
v 0.514743 -0.507690 -0.696468
v -0.007052 -0.507690 -0.866012
v 0.873844 -0.233357 -0.435566
v 0.962979 0.233358 -0.161244
v 0.962979 0.233358 0.161244
v 0.873844 -0.233357 0.435566
v 0.450928 0.233359 0.866017
v 0.684286 -0.233357 0.696473
v 0.144218 0.233358 0.965673
v -0.144218 -0.233358 0.965673
v -0.450928 -0.233359 0.866017
v -0.684286 0.233357 0.696473
v -0.962979 -0.233358 0.161244
v -0.873844 0.233357 0.435566
v -0.962979 -0.233358 -0.161244
v -0.873844 0.233357 -0.435566
v -0.450928 -0.233359 -0.866017
v -0.684286 0.233357 -0.696473
v -0.144218 -0.233358 -0.965673
v 0.144218 0.233358 -0.965673
v 0.684286 -0.233357 -0.696473
v 0.450928 0.233359 -0.866017
v 0.503319 0.507690 0.704768
v 0.825814 0.507689 0.260900
v 0.007052 0.507690 0.866012
v -0.514743 0.507690 0.696468
v -0.821449 0.507689 0.274322
v -0.821449 0.507689 -0.274322
v -0.514743 0.507690 -0.696468
v 0.007052 0.507690 -0.866012
v 0.825814 0.507689 -0.260900
v 0.503319 0.507690 -0.704768
v 0.274327 0.965678 0.000000
v 0.741044 0.677233 0.000000
v 0.084770 0.965679 0.260899
v 0.228989 0.677235 0.704767
v -0.221934 0.965678 0.161243
v -0.599513 0.677235 0.435567
v -0.221934 0.965678 -0.161243
v -0.599513 0.677235 -0.435567
v 0.084770 0.965679 -0.260899
v 0.228989 0.677235 -0.704767
v 0.053006 -0.726573 0.691001
v 0.138762 -0.898089 0.427059
v 0.363284 -0.726573 0.590184
v 0.673563 -0.726573 0.163122
v 0.449039 -0.898089 0.000000
v 0.673563 -0.726573 -0.163122
v -0.640806 -0.726571 0.263939
v -0.363280 -0.898089 0.263939
v -0.449040 -0.726572 0.527878
v -0.449040 -0.726572 -0.527878
v -0.363280 -0.898089 -0.263939
v -0.640806 -0.726571 -0.263939
v 0.363284 -0.726573 -0.590184
v 0.138762 -0.898089 -0.427059
v 0.053006 -0.726573 -0.691001
v 0.951089 -0.277526 0.163122
v 0.951089 -0.277526 -0.163122
v 1.004091 0.000000 0.000000
v 0.138764 -0.277527 0.954947
v 0.449044 -0.277527 0.854128
v 0.310280 0.000000 0.954948
v -0.865331 -0.277526 0.427062
v -0.673564 -0.277526 0.691006
v -0.812331 0.000000 0.590191
v -0.673564 -0.277526 -0.691006
v -0.865331 -0.277526 -0.427062
v -0.812331 0.000000 -0.590191
v 0.449044 -0.277527 -0.854128
v 0.138764 -0.277527 -0.954947
v 0.310280 0.000000 -0.954948
v 0.673564 0.277526 0.691006
v 0.812331 0.000000 0.590191
v 0.865331 0.277526 0.427062
v -0.449044 0.277527 0.854128
v -0.310280 0.000000 0.954948
v -0.138764 0.277527 0.954947
v -0.951089 0.277526 -0.163122
v -1.004091 0.000000 0.000000
v -0.951089 0.277526 0.163122
v -0.138764 0.277527 -0.954947
v -0.310280 0.000000 -0.954948
v -0.449044 0.277527 -0.854128
v 0.865331 0.277526 -0.427062
v 0.812331 0.000000 -0.590191
v 0.673564 0.277526 -0.691006
v 0.449040 0.726572 0.527878
v 0.640806 0.726571 0.263939
v 0.363280 0.898089 0.263939
v -0.363284 0.726573 0.590184
v -0.053006 0.726573 0.691001
v -0.138762 0.898089 0.427059
v -0.673563 0.726573 -0.163122
v -0.673563 0.726573 0.163122
v -0.449039 0.898089 0.000000
v -0.053006 0.726573 -0.691001
v -0.363284 0.726573 -0.590184
v -0.138762 0.898089 -0.427059
v 0.640806 0.726571 -0.263939
v 0.449040 0.726572 -0.527878
v 0.363280 0.898089 -0.263939
vn 0.060152 -0.728111 0.682791
vn 0.262856 -0.525712 0.808985
vn -0.008240 -0.505539 0.862758
vn -0.228339 -0.673666 0.702841
vn -0.162450 -0.850642 0.499985
vn -0.276376 -0.447218 0.850642
vn 0.140996 -0.889798 0.433973
vn 0.352641 -0.728111 0.587725
vn 0.425306 -0.850642 0.309000
vn 0.597858 -0.673666 0.434370
vn 0.723594 -0.447188 0.525712
vn 0.513779 -0.505539 0.693106
vn -0.084048 -0.962249 0.258736
vn 0.220099 -0.962249 0.159917
vn 0.000000 -1.000000 0.000000
vn 0.667959 -0.728111 0.153752
vn 0.850642 -0.525712 0.000000
vn 0.817957 -0.505539 0.274453
vn 0.456282 -0.889798 0.000000
vn 0.667959 -0.728111 -0.153752
vn 0.425306 -0.850642 -0.309000
vn 0.597858 -0.673666 -0.434370
vn 0.723594 -0.447188 -0.525712
vn 0.817957 -0.505539 -0.274453
vn 0.220099 -0.962249 -0.159917
vn -0.630757 -0.728111 0.268197
vn -0.688162 -0.525712 0.499985
vn -0.823054 -0.505539 0.258736
vn -0.738975 -0.673696 0.000000
vn -0.525712 -0.850642 0.000000
vn -0.894406 -0.447188 0.000000
vn -0.369152 -0.889798 0.268197
vn -0.449995 -0.728111 0.517014
vn -0.500412 -0.505539 0.702841
vn -0.272073 -0.962249 0.000000
vn -0.449995 -0.728111 -0.517014
vn -0.688162 -0.525712 -0.499985
vn -0.500412 -0.505539 -0.702841
vn -0.228339 -0.673666 -0.702841
vn -0.162450 -0.850642 -0.499985
vn -0.276376 -0.447218 -0.850642
vn -0.369152 -0.889798 -0.268197
vn -0.630757 -0.728111 -0.268197
vn -0.823054 -0.505539 -0.258736
vn -0.084048 -0.962249 -0.258736
vn 0.352641 -0.728111 -0.587725
vn 0.262856 -0.525712 -0.808985
vn 0.513779 -0.505539 -0.693106
vn 0.140996 -0.889798 -0.433973
vn 0.060152 -0.728111 -0.682791
vn -0.008240 -0.505539 -0.862758
vn 0.949980 -0.271798 0.153752
vn 0.951048 0.000000 0.309000
vn 0.869930 -0.233467 0.434370
vn 0.949980 -0.271798 -0.153752
vn 0.999939 -0.010193 0.000000
vn 0.951048 0.000000 -0.309000
vn 0.959105 0.233436 -0.159917
vn 0.894406 0.447188 0.000000
vn 0.959105 0.233436 0.159917
vn 0.869930 -0.233467 -0.434370
vn 0.147282 -0.271798 0.950987
vn 0.000000 0.000000 1.000000
vn -0.144292 -0.233467 0.961577
vn 0.439802 -0.271798 0.855953
vn 0.309000 -0.010163 0.950987
vn 0.587756 0.000000 0.809015
vn 0.448469 0.233467 0.862758
vn 0.276376 0.447218 0.850642
vn 0.144292 0.233467 0.961577
vn 0.681936 -0.233467 0.693106
vn -0.858913 -0.271798 0.433943
vn -0.951048 0.000000 0.309000
vn -0.959105 -0.233436 0.159917
vn -0.678152 -0.271798 0.682791
vn -0.808954 -0.010163 0.587725
vn -0.587756 0.000000 0.809015
vn -0.681936 0.233467 0.693106
vn -0.723594 0.447188 0.525712
vn -0.869930 0.233467 0.434370
vn -0.448469 -0.233467 0.862758
vn -0.678152 -0.271798 -0.682791
vn -0.587756 0.000000 -0.809015
vn -0.448469 -0.233467 -0.862758
vn -0.858913 -0.271798 -0.433943
vn -0.808954 -0.010163 -0.587725
vn -0.951048 0.000000 -0.309000
vn -0.869930 0.233467 -0.434370
vn -0.723594 0.447188 -0.525712
vn -0.681936 0.233467 -0.693106
vn -0.959105 -0.233436 -0.159917
vn 0.439802 -0.271798 -0.855953
vn 0.587756 0.000000 -0.809015
vn 0.681936 -0.233467 -0.693106
vn 0.147282 -0.271798 -0.950987
vn 0.309000 -0.010163 -0.950987
vn 0.000000 0.000000 -1.000000
vn 0.144292 0.233467 -0.961577
vn 0.276376 0.447218 -0.850642
vn 0.448469 0.233467 -0.862758
vn -0.144292 -0.233467 -0.961577
vn 0.678152 0.271798 0.682791
vn 0.688162 0.525712 0.499985
vn 0.500412 0.505539 0.702841
vn 0.808954 0.010163 0.587725
vn 0.858913 0.271798 0.433943
vn 0.823054 0.505539 0.258736
vn -0.439802 0.271798 0.855953
vn -0.262856 0.525712 0.808985
vn -0.513779 0.505539 0.693106
vn -0.309000 0.010163 0.950987
vn -0.147282 0.271798 0.950987
vn 0.008240 0.505539 0.862758
vn -0.949980 0.271798 -0.153752
vn -0.850642 0.525712 0.000000
vn -0.817957 0.505539 -0.274453
vn -0.999939 0.010193 0.000000
vn -0.949980 0.271798 0.153752
vn -0.817957 0.505539 0.274453
vn -0.147282 0.271798 -0.950987
vn -0.262856 0.525712 -0.808985
vn 0.008240 0.505539 -0.862758
vn -0.309000 0.010163 -0.950987
vn -0.439802 0.271798 -0.855953
vn -0.513779 0.505539 -0.693106
vn 0.858913 0.271798 -0.433943
vn 0.688162 0.525712 -0.499985
vn 0.823054 0.505539 -0.258736
vn 0.808954 0.010163 -0.587725
vn 0.678152 0.271798 -0.682791
vn 0.500412 0.505539 -0.702841
vn 0.449995 0.728111 0.517014
vn 0.162450 0.850642 0.499985
vn 0.228339 0.673666 0.702841
vn 0.630757 0.728111 0.268197
vn 0.369152 0.889798 0.268197
vn 0.525712 0.850642 0.000000
vn 0.272073 0.962249 0.000000
vn 0.000000 1.000000 0.000000
vn 0.084048 0.962249 0.258736
vn 0.738975 0.673696 0.000000
vn -0.352641 0.728111 0.587725
vn -0.425306 0.850642 0.309000
vn -0.597858 0.673666 0.434370
vn -0.060152 0.728111 0.682791
vn -0.140996 0.889798 0.433973
vn -0.220099 0.962249 0.159917
vn -0.667959 0.728111 -0.153752
vn -0.425306 0.850642 -0.309000
vn -0.597858 0.673666 -0.434370
vn -0.667959 0.728111 0.153752
vn -0.456282 0.889798 0.000000
vn -0.220099 0.962249 -0.159917
vn -0.060152 0.728111 -0.682791
vn 0.162450 0.850642 -0.499985
vn 0.228339 0.673666 -0.702841
vn -0.352641 0.728111 -0.587725
vn -0.140996 0.889798 -0.433973
vn 0.084048 0.962249 -0.258736
vn 0.630757 0.728111 -0.268197
vn 0.449995 0.728111 -0.517014
vn 0.369152 0.889798 -0.268197
s 1
f 103//1 15//2 47//3
f 47//3 44//4 103//1
f 13//5 103//1 44//4
f 44//4 47//3 3//6
f 103//1 13//5 104//7
f 104//7 105//8 103//1
f 15//2 103//1 105//8
f 105//8 104//7 14//9
f 46//10 2//11 48//12
f 48//12 105//8 46//10
f 14//9 46//10 105//8
f 105//8 48//12 15//2
f 104//7 13//5 43//13
f 43//13 45//14 104//7
f 14//9 104//7 45//14
f 43//13 1//15 45//14
f 106//16 17//17 52//18
f 52//18 46//10 106//16
f 14//9 106//16 46//10
f 46//10 52//18 2//11
f 106//16 14//9 107//19
f 107//19 108//20 106//16
f 17//17 106//16 108//20
f 108//20 107//19 16//21
f 50//22 6//23 51//24
f 51//24 108//20 50//22
f 16//21 50//22 108//20
f 108//20 51//24 17//17
f 107//19 14//9 45//14
f 45//14 49//25 107//19
f 16//21 107//19 49//25
f 45//14 1//15 49//25
f 109//26 19//27 56//28
f 56//28 54//29 109//26
f 18//30 109//26 54//29
f 54//29 56//28 4//31
f 109//26 18//30 110//32
f 110//32 111//33 109//26
f 19//27 109//26 111//33
f 111//33 110//32 13//5
f 44//4 3//6 55//34
f 55//34 111//33 44//4
f 13//5 44//4 111//33
f 111//33 55//34 19//27
f 110//32 18//30 53//35
f 53//35 43//13 110//32
f 13//5 110//32 43//13
f 53//35 1//15 43//13
f 112//36 21//37 59//38
f 59//38 58//39 112//36
f 20//40 112//36 58//39
f 58//39 59//38 5//41
f 112//36 20//40 113//42
f 113//42 114//43 112//36
f 21//37 112//36 114//43
f 114//43 113//42 18//30
f 54//29 4//31 60//44
f 60//44 114//43 54//29
f 18//30 54//29 114//43
f 114//43 60//44 21//37
f 113//42 20//40 57//45
f 57//45 53//35 113//42
f 18//30 113//42 53//35
f 57//45 1//15 53//35
f 115//46 22//47 61//48
f 61//48 50//22 115//46
f 16//21 115//46 50//22
f 50//22 61//48 6//23
f 115//46 16//21 116//49
f 116//49 117//50 115//46
f 22//47 115//46 117//50
f 117//50 116//49 20//40
f 58//39 5//41 62//51
f 62//51 117//50 58//39
f 20//40 58//39 117//50
f 117//50 62//51 22//47
f 116//49 16//21 49//25
f 49//25 57//45 116//49
f 20//40 116//49 57//45
f 49//25 1//15 57//45
f 118//52 24//53 66//54
f 66//54 52//18 118//52
f 17//17 118//52 52//18
f 52//18 66//54 2//11
f 118//52 17//17 119//55
f 119//55 120//56 118//52
f 24//53 118//52 120//56
f 120//56 119//55 23//57
f 64//58 11//59 65//60
f 65//60 120//56 64//58
f 23//57 64//58 120//56
f 120//56 65//60 24//53
f 63//61 23//57 119//55
f 119//55 51//24 63//61
f 6//23 63//61 51//24
f 51//24 119//55 17//17
f 121//62 26//63 70//64
f 70//64 47//3 121//62
f 15//2 121//62 47//3
f 47//3 70//64 3//6
f 121//62 15//2 122//65
f 122//65 123//66 121//62
f 26//63 121//62 123//66
f 123//66 122//65 25//67
f 67//68 7//69 69//70
f 69//70 123//66 67//68
f 25//67 67//68 123//66
f 123//66 69//70 26//63
f 68//71 25//67 122//65
f 122//65 48//12 68//71
f 2//11 68//71 48//12
f 48//12 122//65 15//2
f 124//72 28//73 73//74
f 73//74 56//28 124//72
f 19//27 124//72 56//28
f 56//28 73//74 4//31
f 124//72 19//27 125//75
f 125//75 126//76 124//72
f 28//73 124//72 126//76
f 126//76 125//75 27//77
f 72//78 8//79 74//80
f 74//80 126//76 72//78
f 27//77 72//78 126//76
f 126//76 74//80 28//73
f 71//81 27//77 125//75
f 125//75 55//34 71//81
f 3//6 71//81 55//34
f 55//34 125//75 19//27
f 127//82 30//83 77//84
f 77//84 59//38 127//82
f 21//37 127//82 59//38
f 59//38 77//84 5//41
f 127//82 21//37 128//85
f 128//85 129//86 127//82
f 30//83 127//82 129//86
f 129//86 128//85 29//87
f 76//88 9//89 78//90
f 78//90 129//86 76//88
f 29//87 76//88 129//86
f 129//86 78//90 30//83
f 75//91 29//87 128//85
f 128//85 60//44 75//91
f 4//31 75//91 60//44
f 60//44 128//85 21//37
f 130//92 32//93 81//94
f 81//94 61//48 130//92
f 22//47 130//92 61//48
f 61//48 81//94 6//23
f 130//92 22//47 131//95
f 131//95 132//96 130//92
f 32//93 130//92 132//96
f 132//96 131//95 31//97
f 80//98 10//99 82//100
f 82//100 132//96 80//98
f 31//97 80//98 132//96
f 132//96 82//100 32//93
f 79//101 31//97 131//95
f 131//95 62//51 79//101
f 5//41 79//101 62//51
f 62//51 131//95 22//47
f 133//102 33//103 83//104
f 83//104 67//68 133//102
f 25//67 133//102 67//68
f 67//68 83//104 7//69
f 133//102 25//67 134//105
f 134//105 135//106 133//102
f 33//103 133//102 135//106
f 135//106 134//105 24//53
f 65//60 11//59 84//107
f 84//107 135//106 65//60
f 24//53 65//60 135//106
f 135//106 84//107 33//103
f 66//54 24//53 134//105
f 134//105 68//71 66//54
f 2//11 66//54 68//71
f 68//71 134//105 25//67
f 136//108 34//109 86//110
f 86//110 72//78 136//108
f 27//77 136//108 72//78
f 72//78 86//110 8//79
f 136//108 27//77 137//111
f 137//111 138//112 136//108
f 34//109 136//108 138//112
f 138//112 137//111 26//63
f 69//70 7//69 85//113
f 85//113 138//112 69//70
f 26//63 69//70 138//112
f 138//112 85//113 34//109
f 70//64 26//63 137//111
f 137//111 71//81 70//64
f 3//6 70//64 71//81
f 71//81 137//111 27//77
f 139//114 35//115 88//116
f 88//116 76//88 139//114
f 29//87 139//114 76//88
f 76//88 88//116 9//89
f 139//114 29//87 140//117
f 140//117 141//118 139//114
f 35//115 139//114 141//118
f 141//118 140//117 28//73
f 74//80 8//79 87//119
f 87//119 141//118 74//80
f 28//73 74//80 141//118
f 141//118 87//119 35//115
f 73//74 28//73 140//117
f 140//117 75//91 73//74
f 4//31 73//74 75//91
f 75//91 140//117 29//87
f 142//120 36//121 90//122
f 90//122 80//98 142//120
f 31//97 142//120 80//98
f 80//98 90//122 10//99
f 142//120 31//97 143//123
f 143//123 144//124 142//120
f 36//121 142//120 144//124
f 144//124 143//123 30//83
f 78//90 9//89 89//125
f 89//125 144//124 78//90
f 30//83 78//90 144//124
f 144//124 89//125 36//121
f 77//84 30//83 143//123
f 143//123 79//101 77//84
f 5//41 77//84 79//101
f 79//101 143//123 31//97
f 145//126 37//127 91//128
f 91//128 64//58 145//126
f 23//57 145//126 64//58
f 64//58 91//128 11//59
f 145//126 23//57 146//129
f 146//129 147//130 145//126
f 37//127 145//126 147//130
f 147//130 146//129 32//93
f 82//100 10//99 92//131
f 92//131 147//130 82//100
f 32//93 82//100 147//130
f 147//130 92//131 37//127
f 81//94 32//93 146//129
f 146//129 63//61 81//94
f 6//23 81//94 63//61
f 63//61 146//129 23//57
f 148//132 39//133 96//134
f 96//134 83//104 148//132
f 33//103 148//132 83//104
f 83//104 96//134 7//69
f 148//132 33//103 149//135
f 149//135 150//136 148//132
f 39//133 148//132 150//136
f 150//136 149//135 38//137
f 93//138 12//139 95//140
f 95//140 150//136 93//138
f 38//137 93//138 150//136
f 150//136 95//140 39//133
f 94//141 38//137 149//135
f 149//135 84//107 94//141
f 11//59 94//141 84//107
f 84//107 149//135 33//103
f 151//142 40//143 98//144
f 98//144 86//110 151//142
f 34//109 151//142 86//110
f 86//110 98//144 8//79
f 151//142 34//109 152//145
f 152//145 153//146 151//142
f 40//143 151//142 153//146
f 153//146 152//145 39//133
f 95//140 12//139 97//147
f 97//147 153//146 95//140
f 39//133 95//140 153//146
f 153//146 97//147 40//143
f 96//134 39//133 152//145
f 152//145 85//113 96//134
f 7//69 96//134 85//113
f 85//113 152//145 34//109
f 154//148 41//149 100//150
f 100//150 88//116 154//148
f 35//115 154//148 88//116
f 88//116 100//150 9//89
f 154//148 35//115 155//151
f 155//151 156//152 154//148
f 41//149 154//148 156//152
f 156//152 155//151 40//143
f 97//147 12//139 99//153
f 99//153 156//152 97//147
f 40//143 97//147 156//152
f 156//152 99//153 41//149
f 98//144 40//143 155//151
f 155//151 87//119 98//144
f 8//79 98//144 87//119
f 87//119 155//151 35//115
f 157//154 42//155 102//156
f 102//156 90//122 157//154
f 36//121 157//154 90//122
f 90//122 102//156 10//99
f 157//154 36//121 158//157
f 158//157 159//158 157//154
f 42//155 157//154 159//158
f 159//158 158//157 41//149
f 99//153 12//139 101//159
f 101//159 159//158 99//153
f 41//149 99//153 159//158
f 159//158 101//159 42//155
f 100//150 41//149 158//157
f 158//157 89//125 100//150
f 9//89 100//150 89//125
f 89//125 158//157 36//121
f 160//160 38//137 94//141
f 94//141 91//128 160//160
f 37//127 160//160 91//128
f 91//128 94//141 11//59
f 160//160 37//127 161//161
f 161//161 162//162 160//160
f 38//137 160//160 162//162
f 162//162 161//161 42//155
f 101//159 12//139 93//138
f 93//138 162//162 101//159
f 42//155 101//159 162//162
f 162//162 93//138 38//137
f 102//156 42//155 161//161
f 161//161 92//131 102//156
f 10//99 102//156 92//131
f 92//131 161//161 37//127
